<?xml version="1.0" encoding="utf-8"?>
<!-- Generator: Adobe Illustrator 18.0.0, SVG Export Plug-In . SVG Version: 6.00 Build 0)  -->
<!DOCTYPE svg PUBLIC "-//W3C//DTD SVG 1.1//EN" "http://www.w3.org/Graphics/SVG/1.1/DTD/svg11.dtd">
<svg version="1.1" id="Layer_1" xmlns="http://www.w3.org/2000/svg" xmlns:xlink="http://www.w3.org/1999/xlink" x="0px" y="0px"
	 viewBox="0 0 64 64" enable-background="new 0 0 64 64" xml:space="preserve">
<g>
	<g>
		<g>
			<path fill="#3BCC9C" d="M32,0c17.7,0,32,14.3,32,32S49.7,64,32,64S0,49.7,0,32S14.3,0,32,0z"/>
		</g>
	</g>
	<g>
		<g>
			<path fill="#FFFFFF" d="M13.3,44c-0.7,0-1.3-0.6-1.3-1.2V17.2c0-0.7,0.6-1.2,1.3-1.2h37.4c0.7,0,1.3,0.6,1.3,1.2v25.5
				c0,0.7-0.6,1.2-1.3,1.2H13.3z"/>
		</g>
	</g>
	<g>
		<g>
			<path fill="#D3D5DD" d="M45,20c0.5,0,1,0.5,1,1s-0.5,1-1,1H18c-0.5,0-1-0.5-1-1s0.5-1,1-1H45z"/>
		</g>
	</g>
	<g>
		<g>
			<path fill="#D3D5DD" d="M45,25c0.5,0,1,0.5,1,1s-0.5,1-1,1H18c-0.5,0-1-0.5-1-1s0.5-1,1-1H45z"/>
		</g>
	</g>
	<g>
		<g>
			<polygon fill="#E84B4B" points="44,43 44,44 44,53 40.1,50.8 36,53 36,44 36,43 			"/>
		</g>
	</g>
	<g>
		<g>
			<path fill="#316CFF" d="M26,35c0.5,0,1,0.4,1,1c0,0.5-0.5,1-1,1h-8c-0.5,0-1-0.5-1-1c0-0.6,0.5-1,1-1H26z"/>
		</g>
	</g>
	<g>
		<g>
			<path fill="#FFC533" d="M44,43.2c-0.1,0.1-0.1,0.1-0.2,0.2l-0.5,0.8c-0.4,0.6-1.2,0.9-1.9,0.6l-0.8-0.3c-0.4-0.1-0.8-0.1-1.1,0
				l-0.8,0.3c-0.7,0.3-1.5,0-1.9-0.6l-0.5-0.8c0-0.1-0.1-0.1-0.2-0.2c-0.2-0.2-0.4-0.4-0.7-0.4l-0.9-0.3c-0.7-0.2-1.2-0.9-1.1-1.6
				l0-1.1c0-0.4-0.1-0.7-0.3-1L32.3,38c-0.4-0.6-0.4-1.3,0-1.9l0.6-0.9c0.2-0.3,0.3-0.6,0.3-1l0-1.1c0-0.7,0.4-1.4,1.1-1.6l0.9-0.3
				c0.4-0.1,0.7-0.3,0.9-0.7l0.5-0.8c0.4-0.6,1.2-0.9,1.9-0.6l0.8,0.3c0.4,0.1,0.8,0.1,1.1,0l0.8-0.3c0.7-0.3,1.5,0,1.9,0.6l0.5,0.8
				c0.2,0.3,0.5,0.5,0.9,0.7l0.9,0.3c0.7,0.2,1.2,0.9,1.1,1.6l0,1.1c0,0.4,0.1,0.7,0.3,1l0.6,0.9c0.4,0.6,0.4,1.3,0,1.9L47,38.8
				c-0.2,0.3-0.3,0.6-0.3,1l0,1.1c0,0.7-0.4,1.4-1.1,1.6l-0.9,0.3C44.4,42.9,44.2,43,44,43.2z"/>
		</g>
	</g>
	<g>
		<g>
			<path fill="#F2AC0F" d="M40,32c2.8,0,5,2.2,5,5s-2.2,5-5,5s-5-2.2-5-5S37.2,32,40,32z"/>
		</g>
	</g>
	<g>
		<g>
			<path fill="#FCEA81" d="M40,34c1.7,0,3,1.3,3,3s-1.3,3-3,3s-3-1.3-3-3S38.3,34,40,34z"/>
		</g>
	</g>
</g>
</svg>
